<svg width="160" height="90" viewBox="0 0 160 90" fill="none" xmlns="http://www.w3.org/2000/svg">
<rect width="160" height="90" fill="#E1E5F0"/>
<path d="M76.6494 45.5795C76.6494 47.7196 74.9145 49.4545 72.7744 49.4545C70.6343 49.4545 68.8994 47.7196 68.8994 45.5795C68.8994 43.4394 70.6343 41.7045 72.7744 41.7045C74.9145 41.7045 76.6494 43.4394 76.6494 45.5795Z" fill="white" stroke="white"/>
<path d="M89.7582 37.7045H80.6494C80.1853 37.7045 79.7402 37.8889 79.412 38.2171C79.0838 38.5453 78.8994 38.9904 78.8994 39.4545V51.7045H66.6494V35.9545H63.1494V60.4545H66.6494V55.2045H94.6494V60.4545H98.1494V46.0958C98.1471 43.871 97.2623 41.738 95.6891 40.1648C94.116 38.5917 91.983 37.7068 89.7582 37.7045ZM82.3994 51.7045V41.2045H89.7582C91.055 41.2059 92.2983 41.7217 93.2153 42.6387C94.1323 43.5557 94.648 44.799 94.6494 46.0958V51.7045H82.3994Z" fill="white"/>
</svg>
