<svg width="29" height="30" viewBox="0 0 29 30" fill="none" xmlns="http://www.w3.org/2000/svg">
<path d="M9.30739 17.4242C10.9013 17.4242 12.1934 16.0675 12.1934 14.3939C12.1934 12.7203 10.9013 11.3636 9.30739 11.3636C7.71349 11.3636 6.42139 12.7203 6.42139 14.3939C6.42139 16.0675 7.71349 17.4242 9.30739 17.4242Z" fill="#495057"/>
<path d="M20.5109 8.93939H14.5023C14.1961 8.93939 13.9025 9.0671 13.686 9.29442C13.4695 9.52173 13.3479 9.83004 13.3479 10.1515V18.6364H5.26705V7.72727H2.95825V24.697H5.26705V21.0606H23.7375V24.697H26.0463V14.7515C26.0447 13.2105 25.4611 11.7331 24.4233 10.6435C23.3856 9.55386 21.9785 8.941 20.5109 8.93939ZM15.6567 18.6364V11.3636H20.5109C21.3664 11.3646 22.1865 11.7218 22.7914 12.357C23.3963 12.9921 23.7366 13.8533 23.7375 14.7515V18.6364H15.6567Z" fill="#495057"/>
</svg>
