<svg width="24" height="24" viewBox="0 0 24 24" fill="none" xmlns="http://www.w3.org/2000/svg">
<path d="M15.6737 6.09091V12C15.6737 13.0833 16.5179 13.9697 17.5496 13.9697H18.4876V20.8636C18.4876 21.4053 18.9096 21.8485 19.4255 21.8485C19.9414 21.8485 20.3635 21.4053 20.3635 20.8636V3.26439C20.3635 2.62424 19.7913 2.15151 19.2004 2.29924C17.1744 2.82121 15.6737 4.62348 15.6737 6.09091ZM10.984 9.04545H9.10805V3.13636C9.10805 2.59469 8.68597 2.15151 8.1701 2.15151C7.65423 2.15151 7.23215 2.59469 7.23215 3.13636V9.04545H5.35625V3.13636C5.35625 2.59469 4.93417 2.15151 4.4183 2.15151C3.90242 2.15151 3.48035 2.59469 3.48035 3.13636V9.04545C3.48035 11.222 5.15928 12.9848 7.23215 12.9848V20.8636C7.23215 21.4053 7.65423 21.8485 8.1701 21.8485C8.68597 21.8485 9.10805 21.4053 9.10805 20.8636V12.9848C11.1809 12.9848 12.8599 11.222 12.8599 9.04545V3.13636C12.8599 2.59469 12.4378 2.15151 11.9219 2.15151C11.406 2.15151 10.984 2.59469 10.984 3.13636V9.04545Z" fill="#495057"/>
</svg>
