<svg width="160" height="90" viewBox="0 0 160 90" fill="none" xmlns="http://www.w3.org/2000/svg">
<rect width="160" height="90" fill="#E1E5F0"/>
<path d="M86.6667 35V45C86.6667 46.8333 88.1667 48.3333 90 48.3333H91.6667V60C91.6667 60.9167 92.4167 61.6667 93.3333 61.6667C94.25 61.6667 95 60.9167 95 60V30.2167C95 29.1333 93.9833 28.3333 92.9333 28.5833C89.3333 29.4667 86.6667 32.5167 86.6667 35ZM78.3333 40H75V30C75 29.0833 74.25 28.3333 73.3333 28.3333C72.4167 28.3333 71.6667 29.0833 71.6667 30V40H68.3333V30C68.3333 29.0833 67.5833 28.3333 66.6667 28.3333C65.75 28.3333 65 29.0833 65 30V40C65 43.6833 67.9833 46.6667 71.6667 46.6667V60C71.6667 60.9167 72.4167 61.6667 73.3333 61.6667C74.25 61.6667 75 60.9167 75 60V46.6667C78.6833 46.6667 81.6667 43.6833 81.6667 40V30C81.6667 29.0833 80.9167 28.3333 80 28.3333C79.0833 28.3333 78.3333 29.0833 78.3333 30V40Z" fill="white"/>
</svg>
