<svg width="160" height="90" viewBox="0 0 160 90" fill="none" xmlns="http://www.w3.org/2000/svg">
<rect width="160" height="90" fill="#E1E5F0"/>
<path d="M77.5001 31.6666C77.5001 40.8333 74.5834 52.5 69.1667 61.6666" stroke="white" stroke-width="3" stroke-linecap="round" stroke-linejoin="round"/>
<path d="M82.5 31.6666C82.5 40.8333 85.4167 52.5 90.8333 61.6666" stroke="white" stroke-width="3" stroke-linecap="round" stroke-linejoin="round"/>
<path d="M63.3334 61.6666H96.6667" stroke="white" stroke-width="3" stroke-linecap="round" stroke-linejoin="round"/>
<path d="M71.6667 50H88.3334" stroke="white" stroke-width="3" stroke-linecap="round"/>
<path d="M74.1667 42.5H85.8334" stroke="white" stroke-width="3" stroke-linecap="round"/>
<path d="M76.6667 31.6666H83.3334" stroke="white" stroke-width="3" stroke-linecap="round"/>
<path d="M80 28.3333V31.6666" stroke="white" stroke-width="3" stroke-linecap="round"/>
<path d="M75 61.6666C75 61.6666 75.6771 59.3229 76.6667 58.3333C77.5 57.5 78.3333 56.6666 80 56.6666C81.6667 56.6666 82.5 57.5 83.3333 58.3333C84.4532 59.453 85 61.6666 85 61.6666" stroke="white" stroke-width="3" stroke-linecap="round" stroke-linejoin="round"/>
</svg>
