<svg width="21" height="22" viewBox="0 0 21 22" fill="none" xmlns="http://www.w3.org/2000/svg">
<g clip-path="url(#clip0_65_424)">
<path d="M4.23835 8.7009C4.27187 8.26236 4.46148 7.85316 4.76941 7.5548C5.07735 7.25644 5.48101 7.09081 5.90002 7.0909H15.9484C16.3674 7.09081 16.771 7.25644 17.079 7.5548C17.3869 7.85316 17.5765 8.26236 17.61 8.7009L18.2792 17.4509C18.2976 17.6917 18.2683 17.9339 18.1932 18.1622C18.1181 18.3905 17.9988 18.6001 17.8428 18.7776C17.6868 18.9552 17.4974 19.0969 17.2867 19.1938C17.076 19.2907 16.8484 19.3408 16.6184 19.3409H5.23002C4.99995 19.3408 4.77239 19.2907 4.56167 19.1938C4.35094 19.0969 4.16161 18.9552 4.0056 18.7776C3.84959 18.6001 3.73027 18.3905 3.65516 18.1622C3.58005 17.9339 3.55078 17.6917 3.56918 17.4509L4.23835 8.7009V8.7009Z" stroke="#495057" stroke-width="2.1" stroke-linecap="round" stroke-linejoin="round"/>
<path d="M14.2575 9.71591V5.34091C14.2575 4.41265 13.9063 3.52241 13.2812 2.86603C12.6561 2.20966 11.8082 1.84091 10.9242 1.84091C10.0401 1.84091 9.19225 2.20966 8.56713 2.86603C7.94201 3.52241 7.59082 4.41265 7.59082 5.34091V9.71591" stroke="#495057" stroke-width="2.1" stroke-linecap="round" stroke-linejoin="round"/>
</g>
<defs>
<clipPath id="clip0_65_424">
<rect width="20" height="21" fill="white" transform="translate(0.0908203 0.0909081)"/>
</clipPath>
</defs>
</svg>
