<svg width="160" height="90" viewBox="0 0 160 90" fill="none" xmlns="http://www.w3.org/2000/svg">
<rect width="160" height="90" fill="#E1E5F0"/>
<path d="M68.5564 40.8509C68.6167 40.0991 68.958 39.3976 69.5123 38.8862C70.0666 38.3747 70.7932 38.0908 71.5474 38.0909H89.6344C90.3886 38.0908 91.1152 38.3747 91.6695 38.8862C92.2238 39.3976 92.5651 40.0991 92.6254 40.8509L93.8299 55.8509C93.863 56.2637 93.8103 56.6789 93.6751 57.0703C93.54 57.4617 93.3252 57.8209 93.0444 58.1253C92.7635 58.4296 92.4227 58.6726 92.0434 58.8387C91.6641 59.0049 91.2545 59.0908 90.8404 59.0909H70.3414C69.9273 59.0908 69.5177 59.0049 69.1384 58.8387C68.7591 58.6726 68.4183 58.4296 68.1374 58.1253C67.8566 57.8209 67.6419 57.4617 67.5067 57.0703C67.3715 56.6789 67.3188 56.2637 67.3519 55.8509L68.5564 40.8509V40.8509Z" stroke="white" stroke-width="3.5" stroke-linecap="round" stroke-linejoin="round"/>
<path d="M86.5909 42.5909V35.0909C86.5909 33.4996 85.9588 31.9735 84.8336 30.8483C83.7084 29.7231 82.1822 29.0909 80.5909 29.0909C78.9996 29.0909 77.4735 29.7231 76.3483 30.8483C75.2231 31.9735 74.5909 33.4996 74.5909 35.0909V42.5909" stroke="white" stroke-width="3.5" stroke-linecap="round" stroke-linejoin="round"/>
</svg>
