<svg width="25" height="26" viewBox="0 0 25 26" fill="none" xmlns="http://www.w3.org/2000/svg">
<g clip-path="url(#clip0_65_430)">
<path d="M12.632 2.48485C10.5027 2.48474 8.45949 3.36702 6.94634 4.93993C5.4332 6.51284 4.57244 8.64926 4.55115 10.8848C4.55115 16.697 11.6724 23.1667 11.9754 23.4424C12.1584 23.6067 12.3912 23.697 12.632 23.697C12.8727 23.697 13.1056 23.6067 13.2885 23.4424C13.6421 23.1667 20.7128 16.697 20.7128 10.8848C20.6915 8.64926 19.8307 6.51284 18.3176 4.93993C16.8044 3.36702 14.7612 2.48474 12.632 2.48485ZM12.632 21.2045C10.9451 19.5182 6.57135 14.8409 6.57135 10.8848C6.57135 9.19711 7.20988 7.57849 8.34646 6.38508C9.48304 5.19166 11.0246 4.52121 12.632 4.52121C14.2393 4.52121 15.7809 5.19166 16.9175 6.38508C18.054 7.57849 18.6926 9.19711 18.6926 10.8848C18.6926 14.8091 14.3188 19.5182 12.632 21.2045Z" fill="#495057"/>
<path d="M12.632 6.72727C11.9327 6.72727 11.2492 6.94498 10.6678 7.35288C10.0865 7.76077 9.63332 8.34052 9.36573 9.01883C9.09815 9.69713 9.02814 10.4435 9.16455 11.1636C9.30096 11.8837 9.63767 12.5451 10.1321 13.0643C10.6265 13.5834 11.2565 13.937 11.9423 14.0802C12.6281 14.2234 13.3389 14.1499 13.9849 13.8689C14.6309 13.588 15.183 13.1122 15.5715 12.5017C15.96 11.8913 16.1673 11.1736 16.1673 10.4394C16.1673 9.45488 15.7949 8.51069 15.1318 7.81453C14.4688 7.11837 13.5696 6.72727 12.632 6.72727ZM12.632 12.0303C12.3323 12.0303 12.0394 11.937 11.7902 11.7622C11.541 11.5874 11.3468 11.3389 11.2322 11.0482C11.1175 10.7575 11.0875 10.4376 11.1459 10.129C11.2044 9.82042 11.3487 9.53694 11.5606 9.31445C11.7725 9.09196 12.0425 8.94044 12.3364 8.87905C12.6303 8.81767 12.9349 8.84917 13.2118 8.96958C13.4887 9.09 13.7253 9.29391 13.8918 9.55553C14.0583 9.81716 14.1471 10.1247 14.1471 10.4394C14.1471 10.8613 13.9875 11.266 13.7033 11.5643C13.4192 11.8627 13.0338 12.0303 12.632 12.0303Z" fill="#495057"/>
</g>
<defs>
<clipPath id="clip0_65_430">
<rect width="24.2424" height="25.4545" fill="white" transform="translate(0.510742 0.363636)"/>
</clipPath>
</defs>
</svg>
