<svg width="160" height="90" viewBox="0 0 160 90" fill="none" xmlns="http://www.w3.org/2000/svg">
<rect width="160" height="90" fill="#E1E5F0"/>
<g clip-path="url(#clip0_281_307)">
<path d="M79.5107 27.8636C75.8218 27.8634 72.2819 29.3192 69.6604 31.9145C67.0389 34.5098 65.5476 38.0349 65.5107 41.7236C65.5107 51.3136 77.8482 61.9886 78.3732 62.4436C78.6902 62.7148 79.0936 62.8637 79.5107 62.8637C79.9279 62.8637 80.3313 62.7148 80.6482 62.4436C81.2607 61.9886 93.5107 51.3136 93.5107 41.7236C93.4739 38.0349 91.9826 34.5098 89.3611 31.9145C86.7395 29.3192 83.1996 27.8634 79.5107 27.8636ZM79.5107 58.7511C76.5882 55.9686 69.0107 48.2511 69.0107 41.7236C69.0107 38.9389 70.117 36.2681 72.0861 34.299C74.0553 32.3299 76.726 31.2236 79.5107 31.2236C82.2955 31.2236 84.9662 32.3299 86.9354 34.299C88.9045 36.2681 90.0107 38.9389 90.0107 41.7236C90.0107 48.1986 82.4332 55.9686 79.5107 58.7511Z" fill="white" stroke="white" stroke-width="0.3"/>
<path d="M79.5107 34.8636C78.2993 34.8636 77.1151 35.2229 76.1079 35.8959C75.1006 36.5689 74.3156 37.5255 73.852 38.6447C73.3884 39.7639 73.2671 40.9954 73.5034 42.1836C73.7398 43.3717 74.3231 44.4631 75.1797 45.3197C76.0363 46.1763 77.1277 46.7596 78.3158 46.9959C79.5039 47.2323 80.7355 47.111 81.8547 46.6474C82.9739 46.1838 83.9305 45.3988 84.6035 44.3915C85.2765 43.3842 85.6357 42.2 85.6357 40.9886C85.6357 39.3642 84.9904 37.8063 83.8418 36.6576C82.6931 35.5089 81.1352 34.8636 79.5107 34.8636V34.8636ZM79.5107 43.6136C78.9916 43.6136 78.4841 43.4597 78.0524 43.1712C77.6207 42.8828 77.2842 42.4728 77.0856 41.9932C76.8869 41.5135 76.8349 40.9857 76.9362 40.4765C77.0375 39.9673 77.2875 39.4996 77.6546 39.1325C78.0217 38.7654 78.4894 38.5154 78.9986 38.4141C79.5078 38.3128 80.0356 38.3648 80.5153 38.5634C80.9949 38.7621 81.4049 39.0986 81.6934 39.5303C81.9818 39.9619 82.1357 40.4695 82.1357 40.9886C82.1357 41.6848 81.8592 42.3525 81.3669 42.8448C80.8746 43.3371 80.2069 43.6136 79.5107 43.6136Z" fill="white" stroke="white" stroke-width="0.3"/>
</g>
<defs>
<clipPath id="clip0_281_307">
<rect width="42" height="42" fill="white" transform="translate(58.5107 24.3636)"/>
</clipPath>
</defs>
</svg>
